<?xml version="1.0" encoding="UTF-8"?>
<svg id="Typo" xmlns="http://www.w3.org/2000/svg" version="1.1" viewBox="0 0 342.7 56.62">
  <!-- Generator: Adobe Illustrator 29.8.2, SVG Export Plug-In . SVG Version: 2.1.1 Build 3)  -->
  <defs>
    <style>
      .st0 {
        fill: #ff3200;
      }
    </style>
  </defs>
  <path d="M293.18,33.67l6.02-6.02h21.61c1.01,0,1.65-.6,1.65-1.41s-.57-1.4-1.65-1.4h-12.74c-5.83,0-8.49-2.73-8.49-6.54,0-4.55,2.83-7.18,9.88-7.18h21.15l-6.13,6.13h-15.77c-1.04,0-1.58.6-1.58,1.41s.54,1.41,1.58,1.41h12.81c5.46,0,8.46,1.95,8.46,6.06,0,4.65-2.22,7.55-9.2,7.55h-27.6,0Z"/>
  <path d="M278.77,33.67v-15.98h-7.25l-6.59-6.57h35.87l-6.57,6.57h-7.64v15.98h-7.82,0Z"/>
  <g>
    <path d="M59.57,24.89L45.46.43l-6.17,10.69,7.99,13.86h-17.09l-16.94,16.94h15.67l8.27-8.27h17.7c3.11,0,5.63-2.52,5.63-5.63,0-1.05-.35-2.23-.95-3.13h0Z"/>
    <path class="st0" d="M28.89,21.81h12.92l-6.17-10.69h-7.32c-2.75,0-5.38,1.08-7.33,3.03L1.5,33.64h15.57l11.83-11.83h0Z"/>
  </g>
  <path d="M257.79,33.67l-4.28-6.96h-5.27v6.96h-7.79v-13.16h15.48c1.85,0,2.87-.11,2.87-1.42s-1.01-1.39-2.87-1.39h-19.97l-3.8-6.57h22.79c5.09,0,11.93,1.52,11.93,8.19,0,3.37-1.99,4.97-5.49,5.81.5.53,2.23,3.15,5.19,6.69l1.62,1.85h-10.42,0Z"/>
  <path d="M92.79,33.67l-4.28-6.96h-5.27v6.96h-7.79v-13.16h15.48c1.85,0,2.87-.11,2.87-1.42s-1.01-1.39-2.87-1.39h-15.48l-3.8-6.57h18.3c5.09,0,11.93,1.52,11.93,8.19,0,3.37-1.99,4.97-5.49,5.81.5.53,2.23,3.15,5.19,6.69l1.62,1.85h-10.42,0Z"/>
  <path d="M192.09,26.7h-5.27v6.96h-7.79v-13.16h15.48c1.85,0,2.87-.11,2.87-1.42s-1.01-1.39-2.87-1.39h-15.48l-3.8-6.57h18.3c5.09,0,11.93,1.52,11.93,8.19s-7.61,7.4-13.38,7.4h.01Z"/>
  <polygon points="217.01 13.59 196.85 33.84 208.09 33.84 221.17 20.78 217.01 13.59"/>
  <path d="M133.84,27.64h-20.26v-2.81h18.64l-2.75-4.78h-15.89v-2.81h14.26l-1.51-2.62c-1.27-2.18-3.77-3.52-6.29-3.52h-14.29v22.55h31.55l-3.47-6.01h0Z"/>
  <path d="M162.8,17.69l-3.8-6.57-23.17-.02c-2.62.01-4.75,2.15-4.74,4.78,0,.89.34,1.87.85,2.69l8.71,15.1h19.09l5.53-6.57h-18l-5.42-9.4h20.95Z"/>
  <path d="M228.41,11.11h-9.18l9.22,16.15-9.44.11-6.47,6.47,20.12-.17c4.05,0,6.4-4.34,4.15-7.99l-8.4-14.57h0Z"/>
  <g>
    <path class="st0" d="M179.05,43h8.46l-.27,1.33h-6.99l-.61,3.1h6.93l-.27,1.32h-6.93l-.66,3.41h7.07l-.27,1.33h-8.55l2.1-10.5h-.01Z"/>
    <path class="st0" d="M189.51,42.55l1.5-.25-2.24,11.21h-1.46l2.19-10.95h0Z"/>
    <path class="st0" d="M197.12,53.46c-.52.15-1.09.23-1.73.23-.86,0-1.61-.17-2.25-.5s-1.13-.77-1.46-1.33c-.33-.55-.5-1.16-.5-1.82,0-.85.19-1.61.57-2.28s.91-1.2,1.6-1.58c.68-.38,1.46-.58,2.33-.58,1.15,0,2.06.31,2.72.93.67.62,1,1.47,1,2.54,0,.25-.03.53-.08.84h-7.04l.18-1.09h6.1l-.48.39c.03-.79-.17-1.41-.6-1.87s-1.04-.68-1.81-.68c-.58,0-1.1.14-1.57.41s-.83.67-1.09,1.17-.39,1.09-.39,1.75c0,.49.12.93.37,1.31s.59.68,1.03.88c.44.21.95.31,1.51.31.72,0,1.37-.12,1.95-.38s1.11-.6,1.58-1.06l-.64,1.81c-.35.25-.78.45-1.3.6h0Z"/>
    <path class="st0" d="M202.05,45.78l1.23,6.15,3.67-6.15h1.59l-4.75,7.73h-1.56l-1.7-7.73h1.52Z"/>
    <path class="st0" d="M208.32,50.46c.28-.38.66-.67,1.15-.89.48-.22,1.08-.4,1.79-.54l3.08-.66v-.08c.12-.49.05-.86-.17-1.11s-.65-.38-1.28-.38c-.59,0-1.21.13-1.84.38-.64.25-1.22.6-1.74,1.04l.53-1.57c.47-.34.99-.6,1.57-.79s1.21-.28,1.88-.28c.97,0,1.68.23,2.13.68.45.46.58,1.12.4,2l-1.04,5.22h-1.46l.35-1.71c-.38.5-.9.94-1.55,1.32-.66.38-1.37.57-2.14.57-.65,0-1.16-.17-1.52-.5s-.55-.77-.55-1.31c0-.57.14-1.04.42-1.42v.03ZM209.71,52.35c.21.16.54.24.97.24.55,0,1.11-.14,1.67-.41.56-.27,1.05-.62,1.45-1.04l.38-1.94-2.79.72c-.65.17-1.15.39-1.49.65-.34.26-.51.62-.51,1.08,0,.31.11.54.32.71h0Z"/>
    <path class="st0" d="M219.21,53.31c-.37-.25-.62-.58-.75-1s-.14-.89-.03-1.41l.78-3.88h-1.92l.25-1.25h1.91l.46-2.32,1.52-.26-.53,2.58h3.22l-.24,1.25h-3.24l-.75,3.77c-.11.54-.07.95.13,1.22.2.28.55.41,1.07.41.32,0,.63-.05.93-.14.3-.09.58-.23.83-.4l-.54,1.44c-.19.11-.44.2-.74.26s-.62.1-.94.1c-.58,0-1.06-.12-1.43-.37h.01Z"/>
    <path class="st0" d="M230.15,53.46c-.52.15-1.09.23-1.73.23-.86,0-1.61-.17-2.25-.5s-1.13-.77-1.46-1.33c-.33-.55-.5-1.16-.5-1.82,0-.85.19-1.61.57-2.28s.91-1.2,1.6-1.58c.68-.38,1.46-.58,2.33-.58,1.15,0,2.06.31,2.72.93.67.62,1,1.47,1,2.54,0,.25-.03.53-.08.84h-7.04l.18-1.09h6.1l-.48.39c.03-.79-.17-1.41-.6-1.87s-1.04-.68-1.81-.68c-.58,0-1.1.14-1.57.41s-.83.67-1.09,1.17-.39,1.09-.39,1.75c0,.49.12.93.37,1.31s.59.68,1.03.88c.44.21.95.31,1.51.31.72,0,1.37-.12,1.95-.38s1.11-.6,1.58-1.06l-.64,1.81c-.35.25-.78.45-1.3.6h0Z"/>
    <path class="st0" d="M235.93,56.13c-.23-.05-.43-.12-.6-.19l-.17-1.33c.18.1.39.18.63.23.24.05.49.08.74.08.41,0,.75-.11,1-.33.26-.22.56-.59.92-1.11l.21-.33-1.77-7.37h1.49l1.49,6.42h-.5l3.93-6.42h1.58l-5.21,8.29c-.34.54-.65.96-.92,1.26-.27.3-.58.52-.9.66-.33.14-.72.21-1.18.21-.26,0-.5-.03-.74-.08h0Z"/>
    <path class="st0" d="M246.62,53.2c-.6-.32-1.07-.75-1.4-1.31-.33-.55-.5-1.16-.5-1.83,0-.84.19-1.6.58-2.28.38-.68.92-1.22,1.61-1.6.69-.39,1.46-.58,2.33-.58.81,0,1.51.16,2.11.48.6.32,1.06.75,1.39,1.3.33.55.49,1.16.49,1.83,0,.83-.19,1.58-.58,2.27-.39.68-.93,1.22-1.61,1.61s-1.45.59-2.3.59c-.8,0-1.5-.16-2.11-.48h-.01ZM250.32,52.02c.46-.29.82-.67,1.08-1.15.26-.48.39-1.01.39-1.57,0-.45-.1-.86-.31-1.24s-.5-.67-.89-.9-.85-.34-1.38-.34c-.58,0-1.1.14-1.57.42s-.83.66-1.09,1.14-.39,1.01-.39,1.58c0,.46.1.88.31,1.26s.51.68.9.9.85.33,1.38.33c.58,0,1.1-.14,1.56-.43h.01Z"/>
    <path class="st0" d="M255.54,45.78h1.46l-.93,4.65c-.04.25-.06.44-.06.56,0,.47.14.83.43,1.07.28.25.7.37,1.25.37.46,0,.91-.11,1.36-.34s.84-.54,1.18-.95l1.07-5.35h1.44l-1.53,7.73h-1.46l.36-1.77c-.35.6-.78,1.08-1.28,1.42-.5.35-1.12.53-1.84.53-.79,0-1.4-.2-1.84-.61-.44-.4-.65-.96-.65-1.67,0-.26.03-.51.08-.77l.98-4.86h-.02Z"/>
    <path class="st0" d="M264.81,45.78h1.46l-.6,2.98c.35-.69.87-1.31,1.56-1.86s1.43-.98,2.22-1.29l.27,1.49c-.78.26-1.53.57-2.24.94-.71.36-1.36.81-1.93,1.33l-.83,4.14h-1.46l1.54-7.73h0Z"/>
    <path class="st0" d="M271.22,56.14c-.22-.04-.42-.1-.58-.18l-.15-1.25c.14.08.3.14.47.19s.37.07.58.07c.32,0,.56-.1.71-.29s.27-.48.35-.85l1.6-8.06h1.46l-1.69,8.5c-.13.64-.36,1.12-.68,1.44-.33.32-.78.48-1.36.48-.25,0-.49-.02-.71-.06h0ZM274.66,44.29c-.17-.14-.25-.33-.25-.57,0-.29.09-.53.29-.73.19-.2.43-.29.72-.29s.5.07.67.22.25.34.25.58c0,.3-.09.54-.28.73s-.43.28-.73.28c-.27,0-.49-.07-.66-.21h-.01Z"/>
    <path class="st0" d="M278.4,53.2c-.6-.32-1.07-.75-1.4-1.31-.33-.55-.5-1.16-.5-1.83,0-.84.19-1.6.58-2.28.38-.68.92-1.22,1.61-1.6.69-.39,1.46-.58,2.33-.58.81,0,1.51.16,2.11.48.6.32,1.06.75,1.39,1.3.33.55.49,1.16.49,1.83,0,.83-.19,1.58-.58,2.27-.39.68-.93,1.22-1.61,1.61s-1.45.59-2.3.59c-.8,0-1.5-.16-2.11-.48h-.01ZM282.1,52.02c.46-.29.82-.67,1.08-1.15.26-.48.39-1.01.39-1.57,0-.45-.1-.86-.31-1.24s-.5-.67-.89-.9-.85-.34-1.38-.34c-.58,0-1.1.14-1.57.42s-.83.66-1.09,1.14-.39,1.01-.39,1.58c0,.46.1.88.31,1.26s.51.68.9.9.85.33,1.38.33c.58,0,1.1-.14,1.56-.43h.01Z"/>
    <path class="st0" d="M287.32,45.78h1.46l-.93,4.65c-.04.25-.06.44-.06.56,0,.47.14.83.43,1.07.28.25.7.37,1.25.37.46,0,.91-.11,1.36-.34s.84-.54,1.18-.95l1.07-5.35h1.44l-1.53,7.73h-1.46l.36-1.77c-.35.6-.78,1.08-1.28,1.42-.5.35-1.12.53-1.84.53-.79,0-1.4-.2-1.84-.61-.44-.4-.65-.96-.65-1.67,0-.26.03-.51.08-.77l.98-4.86h-.02Z"/>
    <path class="st0" d="M296.59,45.78h1.46l-.6,2.98c.35-.69.87-1.31,1.56-1.86s1.43-.98,2.22-1.29l.27,1.49c-.78.26-1.53.57-2.24.94-.71.36-1.36.81-1.93,1.33l-.83,4.14h-1.46l1.54-7.73h0Z"/>
    <path class="st0" d="M302.95,45.78h1.46l-.34,1.74c.35-.59.78-1.06,1.29-1.4s1.12-.52,1.84-.52c.79,0,1.41.21,1.86.61.45.41.67.97.67,1.68,0,.24-.03.49-.08.75l-.97,4.86h-1.46l.93-4.65c.04-.21.06-.4.06-.56,0-.47-.15-.83-.44-1.07s-.73-.37-1.3-.37c-.45,0-.9.11-1.34.34s-.84.53-1.19.92l-1.08,5.38h-1.46l1.54-7.73v.02Z"/>
    <path class="st0" d="M316.97,53.46c-.52.15-1.09.23-1.73.23-.86,0-1.61-.17-2.25-.5s-1.13-.77-1.46-1.33c-.33-.55-.5-1.16-.5-1.82,0-.85.19-1.61.57-2.28s.91-1.2,1.6-1.58c.68-.38,1.46-.58,2.33-.58,1.15,0,2.06.31,2.72.93.67.62,1,1.47,1,2.54,0,.25-.03.53-.08.84h-7.04l.18-1.09h6.1l-.48.39c.03-.79-.17-1.41-.6-1.87s-1.04-.68-1.81-.68c-.58,0-1.1.14-1.57.41s-.83.67-1.09,1.17-.39,1.09-.39,1.75c0,.49.12.93.37,1.31s.59.68,1.03.88c.44.21.95.31,1.51.31.72,0,1.37-.12,1.95-.38s1.11-.6,1.58-1.06l-.64,1.81c-.35.25-.78.45-1.3.6h0Z"/>
    <path class="st0" d="M319.51,56.13c-.23-.05-.43-.12-.6-.19l-.17-1.33c.18.1.39.18.63.23.24.05.49.08.74.08.41,0,.75-.11,1-.33.26-.22.56-.59.92-1.11l.21-.33-1.77-7.37h1.49l1.49,6.42h-.5l3.93-6.42h1.58l-5.21,8.29c-.34.54-.65.96-.92,1.26-.27.3-.58.52-.9.66-.33.14-.72.21-1.18.21-.26,0-.5-.03-.74-.08h0Z"/>
  </g>
  <g>
    <path d="M339.8,13.33c-.37-.68-.89-1.21-1.57-1.61s-1.47-.6-2.37-.6-1.71.2-2.39.6c-.68.4-1.21.94-1.57,1.61-.37.68-.55,1.41-.55,2.19s.18,1.51.55,2.18c.37.67.89,1.2,1.57,1.6s1.47.6,2.37.6,1.71-.2,2.39-.61c.68-.41,1.21-.95,1.57-1.61.37-.67.55-1.39.55-2.16s-.18-1.52-.55-2.19h0ZM339.26,17.48c-.31.59-.76,1.05-1.35,1.39-.59.34-1.27.51-2.06.51s-1.47-.17-2.06-.51-1.04-.8-1.36-1.39c-.32-.59-.48-1.24-.48-1.96s.16-1.39.47-1.98.76-1.05,1.36-1.39c.59-.34,1.28-.51,2.07-.51s1.47.17,2.06.51,1.03.8,1.35,1.39c.31.59.47,1.25.47,1.98s-.16,1.37-.47,1.96Z"/>
    <path d="M336.6,15.79c.41,0,.74-.1.98-.3.24-.2.36-.47.36-.82s-.12-.64-.36-.86c-.24-.21-.57-.32-.98-.32h-2.42v3.95h.72v-1.84l2.21,1.84h.95l-2.01-1.66h.55ZM337.24,14.68c0,.18-.06.32-.18.42s-.29.16-.53.16h-1.64v-1.12h1.64c.47,0,.7.18.7.54h0Z"/>
  </g>
</svg>